<?xml version="1.0" standalone="no"?>
<!DOCTYPE svg PUBLIC "-//W3C//DTD SVG 1.0//EN" "http://www.w3.org/TR/2001/REC-SVG-20010904/DTD/svg10.dtd">
<svg xmlns="http://www.w3.org/2000/svg" xmlns:xlink="http://www.w3.org/1999/xlink" id="body_1" width="96" height="96">

<g transform="matrix(0.13714287 0 0 0.13714287 -0 41.965714)">
	<g transform="matrix(0.1 0 -0 -0.1 0 394)">
        <path d="M0 1970L0 0L787 2L1574 5L1646 269C 1685 413 1728 555 1741 583C 1771 648 1838 740 1902 806L1902 806L1952 857L1620 1376L1289 1895L1372 1898C 1418 1899 1565 1897 1700 1892C 1835 1887 1946 1884 1947 1884C 1948 1885 1926 1912 1899 1945C 1762 2110 1709 2380 1783 2533C 1851 2671 2067 2813 2353 2906L2353 2906L2440 2934L2440 3343C 2440 3813 2439 3807 2519 3843C 2560 3861 2578 3862 2700 3857C 2788 3853 2875 3842 2950 3825C 3406 3723 3474 3716 3880 3724C 4260 3732 4309 3725 4417 3644C 4463 3609 4472 3554 4479 3261L4479 3261L4485 3007L4575 2983C 4876 2904 5064 2806 5155 2682C 5173 2656 5197 2606 5206 2571C 5230 2483 5216 2387 5165 2282C 5094 2137 4901 1974 4677 1870C 4624 1845 4581 1822 4580 1818C 4580 1815 4653 1811 4743 1810C 4972 1809 5541 1792 5546 1787C 5548 1785 5338 1534 5079 1231C 4820 927 4610 677 4612 675C 4614 673 4671 711 4740 759C 4809 807 4934 894 5019 953L5019 953L5172 1060L5224 1013C 5461 794 5628 470 5695 98L5695 98L5712 0L6356 0L7000 0L7000 1970L7000 3940L3500 3940L0 3940L0 1970z" stroke="none" fill="#000000" fill-rule="nonzero" />
        <path d="M2430 2506L2430 2453L2501 2405C 2706 2267 2940 2176 3210 2129C 3307 2112 3611 2112 3710 2129C 3969 2174 4196 2260 4403 2392C 4471 2436 4480 2445 4480 2472C 4480 2497 4477 2501 4463 2495C 4420 2478 4132 2408 3994 2380C 3749 2332 3599 2317 3405 2323C 3226 2328 3132 2341 2935 2391C 2818 2420 2588 2495 2483 2538L2483 2538L2430 2560L2430 2506z" stroke="none" fill="#000000" fill-rule="nonzero" />
        <path d="M2090 1773C 2090 1768 2099 1729 2109 1685C 2150 1515 2221 1356 2291 1276C 2401 1151 2571 1166 2730 1317C 2794 1376 2920 1545 2920 1569C 2920 1575 2901 1580 2875 1580C 2815 1580 2626 1607 2510 1632C 2389 1658 2254 1703 2168 1746C 2096 1782 2090 1784 2090 1773z" stroke="none" fill="#000000" fill-rule="nonzero" />
        <path d="M3989 1646C 3981 1638 3733 1600 3590 1584C 3510 1576 3344 1568 3220 1567L3220 1567L2995 1564L2998 1530C 3011 1384 3135 1198 3266 1128C 3453 1028 3688 1061 3839 1210C 3927 1296 3997 1449 4025 1613C 4030 1645 4028 1650 4012 1650C 4002 1650 3991 1648 3989 1646z" stroke="none" fill="#000000" fill-rule="nonzero" />
	</g>
</g>
</svg>